<?xml version="1.0" encoding="UTF-8" standalone="no"?><!-- Generator: Gravit.io --><svg xmlns="http://www.w3.org/2000/svg" xmlns:xlink="http://www.w3.org/1999/xlink" style="isolation:isolate" viewBox="0 0 46.344 50" width="46.344pt" height="50pt"><defs><clipPath id="_clipPath_LuVP7bcW70ndcGTdkJYNnGBKHuQXVWrA"><rect width="46.344" height="50"/></clipPath></defs><g clip-path="url(#_clipPath_LuVP7bcW70ndcGTdkJYNnGBKHuQXVWrA)"><path d=" M 42.247 9.189 C 43.6 9.229 44.674 10.343 44.674 11.696 C 44.674 13.048 43.56 14.162 42.207 14.122 C 40.855 14.082 39.781 12.968 39.781 11.616 C 39.781 10.263 40.894 9.189 42.247 9.189 L 42.247 9.189 Z  M 36.598 5.927 C 37.951 5.927 39.065 7.001 39.065 8.354 C 39.065 9.706 37.991 10.82 36.598 10.82 C 35.206 10.82 34.132 9.746 34.132 8.394 C 34.172 7.041 35.246 5.927 36.598 5.927 L 36.598 5.927 Z  M 30.392 7.916 C 31.745 7.916 32.859 9.03 32.859 10.383 C 32.859 11.735 31.745 12.849 30.392 12.849 C 29.04 12.849 27.926 11.735 27.926 10.383 C 27.926 8.99 29.04 7.877 30.392 7.916 L 30.392 7.916 Z  M 18.737 5.609 L 18.737 3.302 C 19.294 3.461 19.811 3.62 20.288 3.779 C 20.686 3.899 21.084 4.058 21.482 4.137 C 21.641 4.177 21.879 4.177 21.959 4.097 C 22.038 3.978 22.078 3.739 22.038 3.58 C 21.72 2.466 21.362 1.392 21.004 0.278 C 20.964 0.199 20.964 0.119 20.925 0 L 25.38 0 C 24.982 1.193 24.624 2.347 24.266 3.501 C 24.226 3.66 24.187 3.978 24.306 4.058 C 24.386 4.177 24.704 4.177 24.863 4.097 C 25.738 3.859 26.613 3.58 27.528 3.262 L 27.528 7.837 C 26.494 7.28 25.499 6.763 24.306 6.166 C 24.266 6.484 24.187 6.763 24.266 6.962 L 25.857 11.855 C 26.414 13.565 25.499 15.196 23.789 15.634 C 21.68 16.191 19.691 14.241 20.288 12.133 C 20.765 10.383 21.402 8.712 21.959 6.962 C 22.038 6.763 21.959 6.484 21.919 6.166 C 20.765 6.763 19.771 7.28 18.697 7.877 C 18.737 7.081 18.737 6.365 18.737 5.609 L 18.737 5.609 L 18.737 5.609 Z  M 15.952 7.916 C 17.305 7.916 18.418 9.03 18.418 10.383 C 18.418 11.735 17.265 12.849 15.952 12.849 C 14.599 12.849 13.486 11.735 13.486 10.383 C 13.486 8.99 14.599 7.916 15.952 7.916 L 15.952 7.916 L 15.952 7.916 Z  M 9.706 5.927 C 11.059 5.927 12.173 7.001 12.173 8.394 C 12.173 9.746 11.099 10.86 9.706 10.86 C 8.354 10.86 7.24 9.746 7.24 8.394 C 7.24 7.041 8.354 5.967 9.706 5.927 L 9.706 5.927 Z  M 8.195 27.051 C 7.32 26.613 6.643 26.017 5.609 26.017 C 6.405 27.608 7.24 29.04 8.911 29.756 C 10.741 30.512 12.571 29.119 12.332 27.25 C 12.213 26.534 11.775 25.897 11.178 25.778 C 10.661 25.659 10.144 25.937 9.706 26.653 C 9.667 26.733 9.587 26.812 9.508 26.971 C 9.11 26.056 8.831 25.221 9.348 24.386 C 9.945 23.431 10.9 23.51 12.054 23.789 C 9.746 21.442 9.428 19.055 11.457 16.509 C 12.531 17.384 13.446 18.299 13.764 19.652 C 14.082 21.004 13.605 22.237 13.167 23.59 C 14.082 22.953 14.958 22.476 15.912 23.272 C 16.549 23.789 16.708 24.863 16.27 25.977 C 16.111 25.778 15.952 25.579 15.793 25.42 C 15.117 24.823 14.321 25.022 13.923 25.818 C 13.486 26.733 13.764 27.807 14.639 28.523 C 15.674 29.398 16.947 29.637 18.259 29.597 C 18.578 29.597 18.856 29.557 19.174 29.477 C 21.163 29.08 22.158 27.886 22.317 25.818 C 22.357 25.46 22.357 25.102 22.397 24.664 C 20.646 24.783 19.652 25.977 18.578 27.21 C 18.418 25.3 18.259 23.51 18.1 21.68 C 18.776 22.118 19.373 22.595 20.089 22.914 C 20.765 23.192 21.561 23.311 22.317 23.391 C 21.76 21.8 20.726 20.646 19.691 19.333 L 26.733 19.333 C 26.215 20.01 25.698 20.606 25.261 21.283 C 24.823 21.919 24.425 22.595 23.948 23.351 C 25.738 23.391 27.091 22.755 28.324 21.521 C 28.165 23.51 28.006 25.3 27.846 27.21 C 26.772 25.977 25.778 24.783 24.067 24.664 C 23.948 28.204 25.579 29.676 28.841 29.597 C 29.756 29.557 30.631 29.318 31.427 28.801 C 32.262 28.244 32.779 27.488 32.66 26.454 C 32.58 25.857 32.381 25.34 31.785 25.141 C 31.188 24.903 30.75 25.261 30.392 25.698 C 30.353 25.778 30.273 25.818 30.194 25.897 C 29.716 25.102 29.875 23.829 30.512 23.272 C 31.188 22.635 32.103 22.755 33.376 23.709 C 32.103 20.805 32.381 18.379 35.007 16.549 C 36.598 18.538 37.195 20.885 34.45 23.829 C 35.484 23.55 36.439 23.471 37.076 24.425 C 37.632 25.261 37.354 26.136 36.956 27.051 C 36.757 26.812 36.638 26.573 36.479 26.414 C 35.803 25.619 34.888 25.698 34.37 26.613 C 33.933 27.369 34.012 28.443 34.53 29.159 C 35.126 29.955 36.2 30.313 37.195 30.034 C 38.11 29.756 38.826 29.199 39.383 28.443 C 39.9 27.767 40.338 27.011 40.775 26.255 C 39.781 26.176 39.065 26.733 38.229 27.25 C 38.786 25.46 39.263 23.749 39.781 22.038 C 40.258 22.993 40.696 23.948 41.133 24.863 L 41.332 24.783 C 41.809 23.669 41.491 22.516 41.332 21.322 C 42.446 21.72 43.52 22.118 44.634 22.476 C 44.515 22.635 44.475 22.755 44.395 22.874 C 42.327 25.818 41.133 29.159 40.178 32.58 C 40.059 32.978 39.94 33.376 39.86 33.774 C 39.82 34.211 39.582 34.251 39.184 34.211 C 33.257 33.376 27.329 33.058 21.322 33.177 C 16.628 33.257 11.934 33.535 7.24 34.211 C 6.802 34.291 6.604 34.211 6.484 33.734 C 5.728 30.591 4.734 27.528 3.103 24.704 C 2.705 23.988 2.228 23.272 1.75 22.476 C 2.824 22.078 3.899 21.72 5.052 21.283 C 4.893 22.476 4.615 23.63 5.092 24.823 C 5.848 23.988 6.206 22.993 6.604 21.999 C 7.121 23.55 7.638 25.261 8.195 27.051 L 8.195 27.051 L 8.195 27.051 Z  M 4.137 9.189 C 5.49 9.189 6.564 10.303 6.564 11.656 C 6.564 13.008 5.45 14.122 4.097 14.122 C 2.745 14.122 1.631 13.008 1.631 11.656 C 1.671 10.303 2.785 9.189 4.137 9.189 L 4.137 9.189 L 4.137 9.189 Z  M 0 17.862 C 0 16.509 1.114 15.395 2.466 15.395 C 3.819 15.395 4.933 16.469 4.933 17.862 C 4.933 19.214 3.859 20.288 2.466 20.288 C 1.114 20.328 0 19.214 0 17.862 L 0 17.862 Z  M 9.15 49.805 L 7.678 49.805 C 7.678 49.567 7.638 49.288 7.638 48.97 C 6.763 49.845 5.768 50.084 4.654 49.925 C 2.904 49.646 1.671 48.373 1.392 46.543 C 1.233 45.509 1.313 44.515 1.711 43.52 C 2.387 42.048 3.54 41.253 5.132 41.133 C 6.882 41.014 8.235 41.73 8.99 43.082 C 8.473 43.361 7.996 43.639 7.558 43.878 C 7.2 43.52 6.922 43.162 6.524 42.923 C 5.45 42.287 4.058 42.685 3.501 43.798 C 2.944 44.952 2.944 46.146 3.501 47.259 C 4.058 48.333 5.37 48.731 6.444 48.214 C 7.081 47.896 7.399 47.379 7.399 46.504 L 5.251 46.504 L 5.251 45.111 L 9.11 45.111 C 9.15 46.663 9.15 48.214 9.15 49.805 L 9.15 49.805 L 9.15 49.805 Z  M 16.31 49.487 C 14.838 50.243 13.366 50.163 11.974 49.248 C 10.741 48.413 10.263 47.18 10.184 45.748 C 10.065 43.679 11.178 41.889 12.968 41.292 C 15.872 40.338 18.498 42.327 18.458 45.986 C 18.418 47.22 17.862 48.692 16.31 49.487 L 16.31 49.487 L 16.31 49.487 Z  M 21.482 49.845 C 21.362 49.845 21.163 49.726 21.163 49.606 C 20.368 46.822 19.572 44.077 18.776 41.213 C 19.373 41.213 19.93 41.173 20.487 41.213 C 20.606 41.213 20.805 41.451 20.845 41.611 C 21.362 43.48 21.84 45.35 22.317 47.22 C 22.357 47.299 22.357 47.419 22.516 47.538 C 23.033 45.469 23.59 43.361 24.107 41.253 L 26.056 41.253 C 25.221 44.157 24.425 46.981 23.63 49.845 L 21.482 49.845 L 21.482 49.845 Z  M 27.051 49.964 C 26.414 49.964 25.937 49.447 25.937 48.811 C 25.937 48.174 26.454 47.657 27.051 47.697 C 27.648 47.697 28.165 48.254 28.125 48.851 C 28.125 49.447 27.648 49.964 27.051 49.964 L 27.051 49.964 Z  M 36.121 42.128 L 36.121 46.543 C 36.121 48.493 35.007 49.766 33.097 49.885 C 32.342 49.925 31.546 49.805 30.83 49.527 C 29.796 49.129 29.119 48.294 29.08 47.14 C 29 45.31 29.04 43.44 29.04 41.611 C 29.04 41.491 29.04 41.372 29.08 41.213 L 30.83 41.213 L 30.83 46.543 C 30.83 47.975 31.904 48.731 33.257 48.294 C 33.973 48.055 34.37 47.458 34.37 46.583 L 34.37 41.213 L 36.121 41.213 L 36.121 42.128 L 36.121 42.128 Z  M 42.844 49.845 C 42.685 49.845 42.526 49.646 42.446 49.527 C 41.77 48.373 41.093 47.259 40.377 46.026 C 39.86 46.663 39.104 47.06 39.263 48.055 C 39.343 48.652 39.263 49.248 39.263 49.845 L 37.513 49.845 L 37.513 41.253 L 39.224 41.253 L 39.224 44.793 L 39.343 44.833 C 40.019 44.037 40.775 43.281 41.332 42.406 C 41.969 41.451 42.724 41.054 43.838 41.253 C 43.997 41.292 44.196 41.253 44.475 41.253 C 43.639 42.207 42.884 43.082 42.088 43.958 C 41.451 44.674 41.451 44.674 41.969 45.509 C 42.844 46.941 43.719 48.373 44.674 49.885 L 42.844 49.845 L 42.844 49.845 Z  M 43.878 20.328 C 42.486 20.328 41.412 19.294 41.412 17.901 C 41.412 16.509 42.486 15.435 43.838 15.435 C 45.231 15.435 46.305 16.509 46.344 17.862 C 46.344 19.214 45.231 20.328 43.878 20.328 L 43.878 20.328 L 43.878 20.328 Z  M 16.589 44.873 C 16.429 43.6 15.594 42.724 14.48 42.645 C 13.327 42.565 12.412 43.242 12.093 44.475 C 11.894 45.27 11.894 46.066 12.173 46.862 C 12.491 47.856 13.287 48.453 14.281 48.453 C 15.316 48.453 16.071 47.896 16.429 46.901 C 16.549 46.504 16.589 46.066 16.668 45.628 L 16.628 45.628 C 16.628 45.35 16.628 45.111 16.589 44.873 L 16.589 44.873 Z " fill-rule="evenodd" fill="rgb(255,255,255)"/></g></svg>