<?xml version="1.0" encoding="UTF-8" standalone="no"?><!-- Generator: Gravit.io --><svg xmlns="http://www.w3.org/2000/svg" xmlns:xlink="http://www.w3.org/1999/xlink" style="isolation:isolate" viewBox="0 0 99.33 40" width="99.33pt" height="40pt"><defs><clipPath id="_clipPath_HmNbHv4xB3sOyV5zDFSpysY5WocqrcHj"><rect width="99.33" height="40"/></clipPath></defs><g clip-path="url(#_clipPath_HmNbHv4xB3sOyV5zDFSpysY5WocqrcHj)"><g><path d=" M 39.934 3.858 L 33.077 36.053 L 22.317 36.053 L 15.554 13.774 L 15.461 13.774 L 10.963 36.053 L 2.8 36.053 L 9.712 3.858 L 20.51 3.858 L 27.14 26.187 L 27.234 26.187 L 31.776 3.858 L 39.934 3.858 L 39.934 3.858 L 39.934 3.858 Z  M 70.712 3.858 L 63.988 36.053 L 55.323 36.053 L 58.2 22.263 L 47.948 22.263 L 45.076 36.053 L 36.411 36.053 L 43.136 3.858 L 51.801 3.858 L 49.254 16.177 L 59.495 16.177 L 62.047 3.858 L 70.712 3.858 L 70.712 3.858 Z  M 99.33 40 L 99.33 0 L 0 0 L 0 40 L 99.33 40 L 99.33 40 L 99.33 40 Z  M 95.609 4.735 L 93.52 11.145 C 91.85 10.368 89.579 9.673 86.383 9.673 C 82.954 9.673 80.171 10.175 80.171 12.766 C 80.171 17.329 92.732 15.626 92.732 25.404 C 92.732 34.301 84.431 36.61 76.924 36.61 C 73.589 36.61 69.737 35.822 66.914 34.946 L 68.954 28.397 C 70.663 29.505 74.102 30.244 76.924 30.244 C 79.614 30.244 83.83 29.737 83.83 26.413 C 83.83 21.248 71.269 23.183 71.269 14.105 C 71.269 5.799 78.594 3.307 85.688 3.307 C 89.679 3.307 93.427 3.726 95.609 4.735 Z " fill-rule="evenodd" fill="rgb(255,255,255)"/></g></g></svg>