<?xml version="1.0" encoding="UTF-8" standalone="no"?><!-- Generator: Gravit.io --><svg xmlns="http://www.w3.org/2000/svg" xmlns:xlink="http://www.w3.org/1999/xlink" style="isolation:isolate" viewBox="0 0 141.806 20" width="141.806pt" height="20pt"><defs><clipPath id="_clipPath_BS3HgyCAKeySFREIpAcuqdC8DystfPMG"><rect width="141.806" height="20"/></clipPath></defs><g clip-path="url(#_clipPath_BS3HgyCAKeySFREIpAcuqdC8DystfPMG)"><path d=" M 22.258 7.548 C 22.645 7.548 23.032 7.548 23.42 7.484 C 23.807 7.419 24.129 7.29 24.387 7.161 C 24.645 6.968 24.903 6.774 25.097 6.452 C 25.29 6.129 25.355 5.742 25.355 5.226 C 25.355 4.71 25.29 4.323 25.097 4 C 24.903 3.677 24.71 3.419 24.387 3.29 C 24.129 3.097 23.807 3.032 23.42 2.968 C 23.032 2.903 22.645 2.903 22.258 2.903 L 19.549 2.903 L 19.549 7.677 L 22.258 7.677 L 22.258 7.548 Z  M 23.226 0 C 24.258 0 25.097 0.129 25.807 0.452 C 26.516 0.774 27.097 1.097 27.549 1.613 C 28 2.129 28.323 2.645 28.516 3.226 C 28.71 3.806 28.839 4.452 28.839 5.161 C 28.839 5.806 28.71 6.452 28.516 7.032 C 28.323 7.677 28 8.194 27.549 8.71 C 27.097 9.161 26.516 9.548 25.807 9.871 C 25.097 10.194 24.258 10.323 23.226 10.323 L 19.549 10.323 L 19.549 16.065 L 16 16.065 L 16 0 L 23.226 0 Z  M 49.097 10.323 C 48.968 10.452 48.774 10.516 48.581 10.581 C 48.387 10.645 48.194 10.71 47.936 10.774 C 47.678 10.839 47.484 10.839 47.226 10.903 C 46.968 10.903 46.71 10.968 46.452 11.032 C 46.194 11.097 46 11.161 45.742 11.226 C 45.484 11.29 45.29 11.419 45.161 11.548 C 44.968 11.677 44.839 11.806 44.774 12 C 44.645 12.194 44.645 12.452 44.645 12.71 C 44.645 12.968 44.71 13.226 44.774 13.419 C 44.903 13.613 45.032 13.742 45.226 13.871 C 45.42 14 45.613 14.065 45.871 14.129 C 46.129 14.194 46.387 14.194 46.581 14.194 C 47.226 14.194 47.678 14.065 48.065 13.871 C 48.387 13.677 48.645 13.419 48.839 13.097 C 49.032 12.774 49.097 12.516 49.161 12.194 C 49.226 11.871 49.226 11.677 49.226 11.484 L 49.226 10.323 L 49.097 10.323 Z  M 41.742 8 C 41.807 7.226 42 6.645 42.323 6.129 C 42.645 5.613 43.097 5.226 43.549 4.968 C 44.065 4.645 44.645 4.452 45.29 4.323 C 45.936 4.194 46.581 4.129 47.226 4.129 C 47.807 4.129 48.387 4.194 48.968 4.258 C 49.549 4.323 50.129 4.516 50.581 4.71 C 51.097 4.968 51.484 5.29 51.807 5.677 C 52.129 6.129 52.258 6.645 52.258 7.355 L 52.258 13.355 C 52.258 13.871 52.258 14.387 52.323 14.839 C 52.387 15.29 52.516 15.677 52.645 15.935 L 49.42 15.935 C 49.355 15.742 49.29 15.548 49.29 15.355 C 49.226 15.161 49.226 14.968 49.226 14.774 C 48.71 15.29 48.129 15.677 47.42 15.871 C 46.71 16.065 46 16.194 45.29 16.194 C 44.71 16.194 44.194 16.129 43.742 16 C 43.29 15.871 42.839 15.677 42.516 15.355 C 42.129 15.097 41.871 14.71 41.678 14.258 C 41.484 13.806 41.355 13.29 41.355 12.71 C 41.355 12.065 41.484 11.484 41.678 11.097 C 41.936 10.645 42.194 10.323 42.581 10.065 C 42.968 9.806 43.355 9.613 43.807 9.484 C 44.258 9.355 44.774 9.226 45.226 9.161 C 45.678 9.097 46.194 9.032 46.645 8.968 C 47.097 8.903 47.549 8.839 47.871 8.774 C 48.258 8.71 48.516 8.581 48.71 8.387 C 48.903 8.194 49.032 7.935 49.032 7.613 C 49.032 7.29 48.968 6.968 48.839 6.774 C 48.71 6.581 48.581 6.387 48.387 6.323 C 48.194 6.194 48 6.129 47.742 6.129 C 47.484 6.065 47.226 6.065 46.968 6.065 C 46.323 6.065 45.871 6.194 45.484 6.452 C 45.097 6.71 44.903 7.161 44.839 7.806 L 41.742 7.806 L 41.742 8 Z  M 65.097 4.387 L 65.097 5.935 L 65.161 5.935 C 65.549 5.355 66.065 4.903 66.645 4.516 C 67.226 4.194 67.936 4 68.645 4 C 69.355 4 70.065 4.129 70.645 4.452 C 71.226 4.71 71.742 5.226 72 5.935 C 72.323 5.419 72.839 4.968 73.42 4.581 C 74 4.194 74.71 4 75.484 4 C 76.065 4 76.645 4.065 77.161 4.194 C 77.678 4.323 78.129 4.581 78.516 4.903 C 78.903 5.226 79.161 5.677 79.42 6.194 C 79.613 6.71 79.742 7.355 79.742 8.129 L 79.742 15.871 L 76.581 15.871 L 76.581 9.419 C 76.581 9.032 76.581 8.645 76.516 8.323 C 76.516 8 76.387 7.677 76.258 7.419 C 76.129 7.161 75.936 6.968 75.678 6.839 C 75.42 6.71 75.032 6.645 74.645 6.645 C 74.194 6.645 73.807 6.71 73.549 6.903 C 73.29 7.097 73.032 7.29 72.903 7.548 C 72.774 7.806 72.645 8.129 72.581 8.516 C 72.516 8.839 72.516 9.226 72.516 9.548 L 72.516 16 L 69.355 16 L 69.355 9.484 C 69.355 9.161 69.355 8.774 69.355 8.452 C 69.355 8.129 69.29 7.806 69.161 7.548 C 69.032 7.29 68.839 7.032 68.581 6.839 C 68.323 6.645 67.936 6.581 67.42 6.581 C 67.29 6.581 67.097 6.645 66.839 6.71 C 66.581 6.774 66.323 6.903 66.129 7.097 C 65.871 7.29 65.678 7.548 65.549 7.935 C 65.355 8.258 65.29 8.774 65.29 9.29 L 65.29 16 L 62.129 16 L 62.129 4.387 L 65.097 4.387 L 65.097 4.387 Z  M 88.516 10.323 C 88.387 10.452 88.194 10.516 88 10.581 C 87.807 10.645 87.613 10.71 87.355 10.774 C 87.097 10.839 86.903 10.839 86.645 10.903 C 86.387 10.903 86.129 10.968 85.871 11.032 C 85.613 11.097 85.42 11.161 85.161 11.226 C 84.903 11.29 84.71 11.419 84.581 11.548 C 84.387 11.677 84.258 11.806 84.194 12 C 84.065 12.194 84.065 12.452 84.065 12.71 C 84.065 12.968 84.129 13.226 84.194 13.419 C 84.323 13.613 84.452 13.742 84.645 13.871 C 84.839 14 85.032 14.065 85.29 14.129 C 85.549 14.194 85.807 14.194 86 14.194 C 86.645 14.194 87.097 14.065 87.484 13.871 C 87.807 13.677 88.065 13.419 88.258 13.097 C 88.452 12.774 88.516 12.516 88.581 12.194 C 88.645 11.871 88.645 11.677 88.645 11.484 L 88.645 10.323 L 88.516 10.323 Z  M 81.161 8 C 81.226 7.226 81.42 6.645 81.742 6.129 C 82.065 5.613 82.516 5.226 82.968 4.968 C 83.484 4.645 84.065 4.452 84.71 4.323 C 85.355 4.194 86 4.129 86.645 4.129 C 87.226 4.129 87.807 4.194 88.387 4.258 C 88.968 4.323 89.549 4.516 90 4.71 C 90.516 4.968 90.903 5.29 91.226 5.677 C 91.549 6.129 91.678 6.645 91.678 7.355 L 91.678 13.355 C 91.678 13.871 91.678 14.387 91.742 14.839 C 91.807 15.29 91.936 15.677 92.065 15.935 L 88.839 15.935 C 88.774 15.742 88.71 15.548 88.71 15.355 C 88.645 15.161 88.645 14.968 88.645 14.774 C 88.129 15.29 87.549 15.677 86.839 15.871 C 86.129 16.065 85.42 16.194 84.71 16.194 C 84.129 16.194 83.613 16.129 83.161 16 C 82.71 15.871 82.258 15.677 81.936 15.355 C 81.549 15.097 81.29 14.71 81.097 14.258 C 80.903 13.806 80.774 13.29 80.774 12.71 C 80.774 12.065 80.903 11.484 81.097 11.097 C 81.355 10.645 81.613 10.323 82 10.065 C 82.387 9.806 82.774 9.613 83.226 9.484 C 83.678 9.355 84.194 9.226 84.645 9.161 C 85.097 9.097 85.613 9.032 86.065 8.968 C 86.516 8.903 86.968 8.839 87.29 8.774 C 87.678 8.71 87.936 8.581 88.129 8.387 C 88.323 8.194 88.452 7.935 88.452 7.613 C 88.452 7.29 88.387 6.968 88.258 6.774 C 88.129 6.581 88 6.387 87.807 6.323 C 87.613 6.194 87.42 6.129 87.161 6.129 C 86.903 6.065 86.645 6.065 86.387 6.065 C 85.742 6.065 85.29 6.194 84.903 6.452 C 84.516 6.71 84.323 7.161 84.258 7.806 L 81.161 7.806 L 81.161 8 Z  M 98.452 6.516 C 97.936 6.516 97.549 6.645 97.161 6.839 C 96.839 7.097 96.516 7.355 96.323 7.742 C 96.129 8.129 95.936 8.516 95.871 8.968 C 95.807 9.419 95.742 9.871 95.742 10.258 C 95.742 10.645 95.807 11.097 95.871 11.548 C 95.936 12 96.129 12.387 96.323 12.71 C 96.516 13.032 96.774 13.355 97.161 13.548 C 97.484 13.742 97.936 13.871 98.387 13.871 C 99.161 13.871 99.742 13.677 100.129 13.226 C 100.516 12.774 100.774 12.258 100.903 11.484 L 104 11.484 C 103.807 13.032 103.161 14.194 102.194 15.032 C 101.226 15.871 99.936 16.258 98.387 16.258 C 97.549 16.258 96.71 16.129 96 15.806 C 95.29 15.484 94.645 15.097 94.129 14.581 C 93.613 14.065 93.226 13.419 92.968 12.71 C 92.71 12 92.516 11.161 92.516 10.323 C 92.516 9.419 92.645 8.581 92.903 7.806 C 93.161 7.032 93.549 6.387 94.065 5.806 C 94.581 5.226 95.161 4.839 95.936 4.516 C 96.645 4.194 97.484 4.065 98.452 4.065 C 99.161 4.065 99.807 4.129 100.452 4.323 C 101.097 4.516 101.678 4.774 102.129 5.161 C 102.645 5.548 103.032 6 103.355 6.516 C 103.678 7.032 103.871 7.677 103.871 8.452 L 100.774 8.452 C 100.581 7.161 99.807 6.516 98.452 6.516 Z  M 109.161 19.419 C 108.581 19.806 107.678 20 106.581 20 C 106.258 20 105.936 20 105.613 19.935 C 105.29 19.935 104.968 19.871 104.645 19.871 L 104.645 17.226 C 104.968 17.226 105.226 17.29 105.549 17.29 C 105.871 17.29 106.194 17.355 106.516 17.29 C 106.903 17.226 107.226 17.097 107.42 16.774 C 107.613 16.516 107.742 16.194 107.742 15.806 C 107.742 15.548 107.678 15.29 107.613 15.097 L 103.549 4.258 L 106.903 4.258 L 109.549 12.194 L 109.613 12.194 L 112.129 4.258 L 115.42 4.258 L 110.581 17.419 C 110.258 18.387 109.807 19.032 109.161 19.419 Z  M 116.387 3.871 C 116.645 3.097 116.968 2.452 117.484 1.871 C 117.936 1.29 118.581 0.839 119.29 0.516 C 120 0.194 120.839 0.065 121.807 0.065 C 122.516 0.065 123.226 0.194 123.871 0.387 C 124.516 0.581 125.097 0.903 125.613 1.355 C 126.129 1.742 126.516 2.258 126.774 2.903 C 127.097 3.484 127.226 4.194 127.226 4.968 C 127.226 5.742 127.097 6.452 126.839 7.032 C 126.581 7.613 126.258 8.129 125.807 8.516 C 125.42 8.968 124.903 9.355 124.387 9.742 C 123.871 10.129 123.355 10.452 122.774 10.774 C 122.258 11.097 121.742 11.484 121.226 11.935 C 120.71 12.323 120.258 12.839 119.871 13.355 L 127.29 13.355 L 127.29 16.065 L 115.807 16.065 C 115.807 15.161 115.936 14.387 116.194 13.677 C 116.452 13.032 116.839 12.387 117.226 11.871 C 117.678 11.355 118.194 10.839 118.774 10.387 C 119.355 9.935 120 9.484 120.71 9.032 C 121.032 8.774 121.42 8.581 121.807 8.323 C 122.194 8.065 122.581 7.806 122.839 7.484 C 123.161 7.161 123.42 6.839 123.678 6.452 C 123.871 6.065 124 5.677 124 5.161 C 124 4.387 123.807 3.806 123.355 3.355 C 122.903 2.903 122.323 2.71 121.678 2.71 C 121.226 2.71 120.839 2.839 120.516 3.032 C 120.194 3.226 119.936 3.548 119.742 3.871 C 119.549 4.194 119.42 4.581 119.355 5.032 C 119.29 5.484 119.226 5.871 119.226 6.323 L 116.194 6.323 C 116.065 5.419 116.129 4.581 116.387 3.871 Z  M 40.129 6.903 C 40 6.323 39.807 5.806 39.484 5.419 C 39.161 5.032 38.71 4.71 38.194 4.452 C 37.678 4.194 36.968 4.129 36.129 4.129 C 35.549 4.129 34.903 4.258 34.323 4.581 C 33.678 4.903 33.161 5.355 32.774 6.065 L 32.71 6.065 L 32.71 0 L 29.549 0.903 L 29.549 16 L 32.71 16 L 32.71 9.935 C 32.71 8.774 32.903 7.935 33.29 7.419 C 33.678 6.903 34.323 6.645 35.161 6.645 C 35.936 6.645 36.452 6.903 36.774 7.355 C 37.097 7.806 37.226 8.516 37.226 9.484 L 37.226 16 L 40.387 16 L 40.387 8.903 C 40.323 8.129 40.258 7.484 40.129 6.903 Z " fill="rgb(255,255,255)"/><path d=" M 138.258 0.968 L 138.258 9.935 C 138.258 11.161 138 12 137.549 12.581 C 137.097 13.161 136.194 13.419 134.968 13.419 C 134.258 13.419 133.678 13.29 133.226 13.097 C 132.774 12.903 132.452 12.645 132.258 12.323 C 132 12 131.871 11.613 131.807 11.226 C 131.742 10.839 131.678 10.387 131.678 9.935 L 131.678 0 L 128.129 0.968 L 128.129 9.935 C 128.129 12.129 128.71 13.742 129.936 14.774 C 131.097 15.806 132.774 16.323 134.968 16.323 C 137.097 16.323 138.774 15.806 140 14.774 C 141.226 13.742 141.807 12.129 141.807 9.935 L 141.807 0 L 138.258 0.968 L 138.258 0.968 Z  M 60.581 4.129 C 60.194 4.129 59.807 4.194 59.42 4.323 C 59.032 4.452 58.71 4.581 58.387 4.839 C 58.065 5.032 57.742 5.29 57.484 5.613 C 57.226 5.935 57.032 6.258 56.903 6.581 L 56.839 6.581 L 56.839 4.387 L 53.807 5.226 L 53.807 15.935 L 56.968 15.935 L 56.968 10.71 C 56.968 10.194 57.032 9.677 57.097 9.226 C 57.226 8.774 57.355 8.387 57.613 8.065 C 57.871 7.742 58.194 7.484 58.581 7.29 C 58.968 7.097 59.484 6.968 60.065 6.968 C 60.258 6.968 60.452 6.968 60.645 7.032 C 60.839 7.032 61.032 7.097 61.161 7.097 L 61.161 4.194 C 61.032 4.129 60.774 4.129 60.581 4.129 Z " fill="rgb(255,255,255)"/><path d=" M 8 8 L 12 8 L 12 12 L 8 12 L 8 8 Z  M 8 0 L 12 0 L 12 4 L 8 4 L 8 0 Z  M 0 8 L 4 8 L 4 12 L 0 12 L 0 8 Z  M 0 0 L 4 0 L 4 4 L 0 4 L 0 0 Z " fill="rgb(255,255,255)"/></g></svg>